<svg width="950" height="950" viewBox="0 0 950 950" fill="none" xmlns="http://www.w3.org/2000/svg">
<path d="M590.219 283.987L539.892 371.954C536.831 377.304 529.125 377.329 526.03 371.999L482.437 296.944C479.349 291.627 471.667 291.637 468.592 296.961L212.431 740.499C209.351 745.832 213.2 752.5 219.359 752.5H435.885C438.741 752.5 441.381 750.977 442.81 748.505L646.064 396.996C649.146 391.665 656.845 391.67 659.92 397.005L927.086 860.505C930.16 865.838 926.311 872.5 920.155 872.5H624.828C618.676 872.5 614.826 865.846 617.893 860.512L677.693 756.512C679.12 754.03 681.765 752.5 684.628 752.5H731.15C737.307 752.5 741.156 745.836 738.08 740.503L659.924 605.004C656.847 599.669 649.148 599.666 646.067 604.998L493.81 868.502C492.38 870.976 489.74 872.5 486.883 872.5H29.8597C23.7006 872.5 19.8516 865.832 22.9323 860.499L468.565 89.0061C471.646 83.6717 479.347 83.6754 482.424 89.0127L590.206 276.02C591.627 278.485 591.631 281.518 590.219 283.987Z" fill="white"/>
</svg>
