<svg width="1000" height="1000" viewBox="0 0 1000 1000" fill="none" xmlns="http://www.w3.org/2000/svg">
<path fill-rule="evenodd" clip-rule="evenodd" d="M534.79 159L507.077 111C503.998 105.667 496.3 105.667 493.221 111L465.508 159L75.7965 834L48.0837 882C45.0045 887.333 48.8535 894 55.0119 894H110.438H484.071C486.929 894 489.57 892.475 490.999 890L569.469 754.068C569.49 754.032 569.536 754.019 569.573 754.04V754.04C569.61 754.061 569.656 754.049 569.677 754.012L670.721 579C673.8 573.667 681.498 573.667 684.577 579L813.182 801.75C816.261 807.083 812.412 813.75 806.254 813.75H632.008C629.15 813.75 626.509 815.275 625.08 817.75L587.99 882C584.911 887.334 588.76 894 594.918 894H889.86H945.286C951.444 894 955.293 887.333 952.214 882L924.501 834L678.353 407.658C678.317 407.596 678.227 407.596 678.191 407.658V407.658C678.155 407.721 678.065 407.721 678.029 407.658L677.879 407.399C677.777 407.222 677.521 407.222 677.419 407.399L643.008 467L444.977 810C443.548 812.475 440.907 814 438.049 814H193.576C187.418 814 183.569 807.333 186.648 802L493.221 271C496.3 265.667 503.998 265.667 507.077 271L578.975 395.53C582.054 400.864 589.755 400.863 592.832 395.527L629.767 331.5C631.195 329.025 631.194 325.977 629.766 323.503L534.79 159Z" fill="black"/>
</svg>
