<svg width="26" height="19" viewBox="0 0 26 19" fill="none" xmlns="http://www.w3.org/2000/svg">
<g clip-path="url(#clip0_5:113)">
<path d="M5.90911 18.9065V9.16922L2.79368 6.40654L0 4.87344V17.1881C0 18.1389 0.794727 18.9065 1.77277 18.9065H5.90911V18.9065Z" fill="#4285F4"/>
<path d="M20.0909 18.9065H24.2272C25.2082 18.9065 26 18.136 26 17.1881V4.87354L22.8357 6.62951L20.0909 9.16921V18.9065V18.9065Z" fill="#34A853"/>
<path d="M5.90909 9.16921L5.48517 5.36458L5.90909 1.72318L13 6.87818L20.0909 1.72318L20.5652 5.16798L20.0909 9.16921L13 14.3242L5.90909 9.16921Z" fill="#EA4335"/>
<path d="M20.0909 1.72319V9.16922L26 4.87345V2.58233C26 0.457378 23.4975 -0.753995 21.7455 0.520383L20.0909 1.72319Z" fill="#FBBC04"/>
<path d="M0 4.87331L2.71771 6.84912L5.90911 9.16908V1.72305L4.25445 0.520245C2.49945 -0.754231 0 0.45724 0 2.58209V4.87321V4.87331Z" fill="#C5221F"/>
</g>
<defs>
<clipPath id="clip0_5:113">
<rect width="26" height="19" fill="white"/>
</clipPath>
</defs>
</svg>
