<svg width="24" height="24" viewBox="0 0 24 24" fill="none" xmlns="http://www.w3.org/2000/svg">
<g clip-path="url(#clip0_5:111)">
<rect width="24" height="24" rx="3" fill="white"/>
<path d="M20.4481 20.4488H16.8921V14.8798C16.8921 13.5518 16.8684 11.8423 15.0426 11.8423C13.1905 11.8423 12.9071 13.2892 12.9071 14.7831V20.4484H9.35115V8.99633H12.7649V10.5614H12.8127C13.1543 9.97723 13.648 9.49668 14.2411 9.1709C14.8343 8.84512 15.5047 8.68633 16.1809 8.71142C19.7851 8.71142 20.4496 11.0822 20.4496 14.1664L20.4481 20.4488ZM5.33865 7.43098C4.19893 7.43117 3.27484 6.50736 3.27465 5.36764C3.27446 4.22792 4.19818 3.30382 5.3379 3.30364C6.47762 3.30336 7.40171 4.22717 7.4019 5.36689C7.402 5.9142 7.18468 6.43914 6.79775 6.82623C6.41082 7.21332 5.88596 7.43086 5.33865 7.43098ZM7.11671 20.4489H3.55693V8.99633H7.11662L7.11671 20.4489ZM22.221 0.00110587H1.77005C0.803492 -0.00976913 0.0108359 0.764512 -0.000976562 1.73107V22.2673C0.0104609 23.2343 0.803023 24.0094 1.76996 23.9992H22.221C23.19 24.0112 23.9856 23.2362 23.999 22.2673V1.72948C23.9852 0.761043 23.1895 -0.0131441 22.221 -0.000487879" fill="#0A66C2"/>
</g>
<defs>
<clipPath id="clip0_5:111">
<rect width="24" height="24" fill="white"/>
</clipPath>
</defs>
</svg>
